<?xml version="1.0"?>
<svg width="693" height="516" xmlns="http://www.w3.org/2000/svg">
 <title>free-flat-social-icons</title>Created with Sketch (http://www.bohemiancoding.com/sketch)

 <g>
  <title>background</title>
  <rect fill="none" id="canvas_background" height="402" width="582" y="-1" x="-1"/>
 </g>
 <g>
  <title>Layer 1</title>
  <g fill-rule="evenodd" fill="none" id="Page 1">
   <g id="Colour">
    <g id="Row 4">
     <g id="Mail">
      <path id="svg_1" fill="#FFFFFF" d="m281.561035,31.001392c0,-16.568544 13.450867,-30.000001 30.043365,-30.000001c16.592499,0 30.043365,13.431457 30.043365,30.000001c0,16.568539 -13.450867,29.999996 -30.043365,29.999996c-16.592499,0 -30.043365,-13.431458 -30.043365,-29.999996zm0,0"/>
      <path fill="#333333" id="Shape" d="m316.955139,32.639786l12.377594,-11.638393l0,20.576443l-12.377594,-8.938049zm-21.622406,-11.638393l12.377319,11.637142l-12.377319,8.939301l0,-20.576443zm17,15.984493l2.954803,-2.777985l14.045197,8.793488l-34,0l14.044861,-8.793488l2.955139,2.777985zm15.97998,-15.984493l-15.97998,12.454922l-15.980011,-12.454922l31.959991,0zm0,0"/>
      <path fill="#000000" fill-opacity="0.08" id="reflec" d="m341.647766,31.001392c0,16.568539 -13.450867,29.999996 -30.043365,29.999996c-6.153748,0 -11.875397,-1.847473 -16.638855,-5.017212l34.424561,-49.163373c7.433746,5.461242 12.25766,14.258378 12.25766,24.180589zm0,0"/>
     </g>
    </g>
    <g id="Row 2">
     <g id="LinkedIN">
      <path id="svg_2" fill="#007BB6" d="m214.456665,31.499987c0,-16.56854 13.450836,-29.999998 30.043335,-29.999998c16.592499,0 30.043365,13.431459 30.043365,29.999998c0,16.568548 -13.450867,30.000006 -30.043365,30.000006c-16.592499,0 -30.043335,-13.431458 -30.043335,-30.000006zm0,0"/>
      <path fill="#FFFFFF" id="Path" d="m236.842499,25.209795l-6.798645,0l0,20.42716l6.798645,0l0,-20.42716zm0,0"/>
      <path fill="#FFFFFF" id="Path" d="m237.290283,18.890871c-0.044128,-2.002874 -1.476379,-3.528378 -3.802155,-3.528378c-2.325775,0 -3.846283,1.525504 -3.846283,3.528378c0,1.96138 1.475555,3.530807 3.758026,3.530807l0.043427,0c2.370605,0 3.846985,-1.569427 3.846985,-3.530807zm0,0"/>
      <path fill="#FFFFFF" id="Path" d="m261.361053,33.924652c0,-6.274343 -3.353973,-9.194517 -7.827789,-9.194517c-3.60965,0 -5.225739,1.982666 -6.128082,3.373543l0,-2.893333l-6.799469,0c0.0896,1.916771 0,20.427153 0,20.427153l6.799469,0l0,-11.408203c0,-0.610497 0.044128,-1.219517 0.223877,-1.656612c0.491364,-1.219645 1.610138,-2.482401 3.488403,-2.482401c2.461151,0 3.444946,1.873116 3.444946,4.618132l0,10.928543l6.79837,0l0.000275,-11.712303zm0,0"/>
      <path fill="#000000" fill-opacity="0.08" id="reflec" d="m274.543365,31.499987c0,16.568548 -13.450867,30.000006 -30.043365,30.000006c-6.153748,0 -11.875397,-1.847488 -16.638855,-5.017212l34.424561,-49.16338c7.433746,5.461236 12.25766,14.258391 12.25766,24.180586zm0,0"/>
     </g>
    </g>
    <g id="Row 1">
     <g id="Twitter">
      <path id="svg_3" fill="#4099FF" d="m0.666663,30.666662c0,-16.568539 13.45087,-29.999999 30.04335,-29.999999c16.592493,0 30.043352,13.431461 30.043352,29.999999c0,16.568541 -13.450859,30.000002 -30.043352,30.000002c-16.59248,0 -30.04335,-13.431461 -30.04335,-30.000002zm0,0"/>
      <path fill="#FFFFFF" id="Path" d="m29.966433,24.554642l0.06295,1.038061l-1.049221,-0.127111c-3.819159,-0.487249 -7.15567,-2.139688 -9.98856,-4.914928l-1.38497,-1.377031l-0.356741,1.016891c-0.755428,2.2668 -0.272789,4.660709 1.301031,6.270769c0.83938,0.889771 0.65052,1.01689 -0.7974,0.487261c-0.503632,-0.169481 -0.944302,-0.296591 -0.986271,-0.233042c-0.146889,0.1483 0.356741,2.076141 0.75544,2.8388c0.545591,1.05925 1.65777,2.097321 2.874861,2.711691l1.028231,0.487251l-1.217091,0.021191c-1.175119,0 -1.217091,0.021179 -1.09119,0.466068c0.419689,1.377029 2.077459,2.838802 3.92408,3.47435l1.301029,0.444881l-1.133148,0.677929c-1.678751,0.97451 -3.651281,1.525322 -5.623821,1.567692c-0.944288,0.021191 -1.720718,0.10593 -1.720718,0.169479c0,0.211849 2.560099,1.39822 4.049988,1.864281c4.469671,1.377029 9.778721,0.783848 13.765753,-1.567692c2.83289,-1.673618 5.665791,-4.999668 6.987801,-8.219801c0.71347,-1.71599 1.426941,-4.851379 1.426941,-6.35552c0,-0.97451 0.06295,-1.10162 1.238079,-2.2668c0.692478,-0.677919 1.342999,-1.419399 1.468899,-1.631241c0.20985,-0.402519 0.188862,-0.402519 -0.88134,-0.042379c-1.783669,0.635561 -2.035488,0.550819 -1.15414,-0.40251c0.65052,-0.677919 1.426941,-1.90666 1.426941,-2.2668c0,-0.06356 -0.31477,0.04237 -0.671501,0.23303c-0.37772,0.211849 -1.217098,0.529629 -1.84663,0.720299l-1.133148,0.360142l-1.02824,-0.69911c-0.566582,-0.38133 -1.363979,-0.805031 -1.783669,-0.93214c-1.070202,-0.296591 -2.706993,-0.254221 -3.672272,0.08474c-2.623053,0.953329 -4.280811,3.410799 -4.091951,6.101299zm0,0"/>
      <path fill="#000000" fill-opacity="0.08" id="reflec" d="m60.753365,30.666662c0,16.568541 -13.450859,30.000002 -30.043352,30.000002c-6.153761,0 -11.875391,-1.847488 -16.638859,-5.01722l34.424559,-49.163372c7.433762,5.461241 12.257652,14.25839 12.257652,24.18059zm0,0"/>
     </g>
     <g id="Facebook">
      <path id="svg_4" fill="#3B5998" d="m73.780823,30.666662c0,-16.568539 13.450874,-29.999999 30.04335,-29.999999c16.592491,0 30.04335,13.431461 30.04335,29.999999c0,16.568541 -13.450859,30.000002 -30.04335,30.000002c-16.592476,0 -30.04335,-13.431461 -30.04335,-30.000002zm0,0"/>
      <path fill="#FFFFFF" id="Path" d="m106.336388,46.986336l0,-16.321583l4.50547,0l0.597069,-5.62451l-5.102539,0l0.007645,-2.815121c0,-1.466961 0.139381,-2.252991 2.246361,-2.252991l2.816635,0l0,-5.625138l-4.506111,0c-5.41256,0 -7.317642,2.728488 -7.317642,7.316949l0,3.37694l-3.37384,0l0,5.62451l3.37384,0l0,16.320944l6.753113,0zm0,0"/>
      <path fill="#000000" fill-opacity="0.08" id="reflec" d="m133.867523,30.666662c0,16.568541 -13.450859,30.000002 -30.04335,30.000002c-6.153755,0 -11.875389,-1.847488 -16.638855,-5.01722l34.424561,-49.163372c7.433746,5.461241 12.257645,14.25839 12.257645,24.18059zm0,0"/>
     </g>
     <g id="Github">
      <path id="svg_5" fill="#333333" d="m145.00914,31.333324c0,-16.568538 13.450867,-29.999999 30.04335,-29.999999c16.592499,0 30.043365,13.431461 30.043365,29.999999c0,16.568542 -13.450867,30.000004 -30.043365,30.000004c-16.592484,0 -30.04335,-13.431461 -30.04335,-30.000004zm0,0"/>
      <path fill="#FFFFFF" id="Path" d="m163.188721,33.268887c1.41156,2.515232 4.133881,4.080112 8.725342,4.512962c-0.655365,0.48801 -1.442596,1.414577 -1.551178,2.485741c-0.824036,0.523209 -2.480896,0.6954 -3.769348,0.29681c-1.805176,-0.559372 -2.496399,-4.066811 -5.199326,-3.567371c-0.585571,0.10844 -0.469238,0.487061 0.036835,0.808601c0.824066,0.523209 1.599655,1.177708 2.197815,2.571358c0.459549,1.07021 1.425156,2.982323 4.479019,2.982323c1.211853,0 2.061127,-0.142693 2.061127,-0.142693c0,0 0.023254,2.731171 0.023254,3.79282c0,1.224331 -1.68399,1.569653 -1.68399,2.158501c0,0.23307 0.557465,0.254951 1.005371,0.254951c0.885132,0 2.727142,-0.724892 2.727142,-1.99773c0,-1.01123 0.016479,-4.411171 0.016479,-5.00573c0,-1.30043 0.710632,-1.712341 0.710632,-1.712341c0,0 0.088226,6.941631 -0.169647,7.872002c-0.30249,1.093987 -0.848297,0.938927 -0.848297,1.426949c0,0.72583 2.217194,0.177891 2.952057,-1.415539c0.568115,-1.24049 0.319916,-8.049892 0.319916,-8.049892l0.605957,-0.01236c0,0 0.033905,3.117401 0.01355,4.54245c-0.021332,1.47546 -0.123108,3.341911 0.769775,4.221859c0.586548,0.578392 2.488647,1.593433 2.488647,0.665913c0,-0.539391 -1.042175,-0.982693 -1.042175,-2.441982l0,-6.714268c0.831818,0 0.706757,2.207958 0.706757,2.207958l0.061066,4.102001c0,0 -0.183228,1.494499 1.647156,2.120449c0.645691,0.221649 2.028168,0.28159 2.093109,-0.09037c0.064972,-0.37291 -1.664612,-0.927521 -1.680115,-2.085251c-0.009705,-0.705868 0.032013,-1.117779 0.032013,-4.185719c0,-3.067928 -0.4198,-4.201881 -1.882751,-5.10561c4.514893,-0.455681 7.308929,-1.55167 8.671051,-4.487282c0.106354,0.003429 0.554504,-1.371302 0.496368,-1.370823c0.305389,-1.108259 0.470215,-2.419149 0.503174,-3.97167c-0.007751,-4.209499 -2.061127,-5.698278 -2.455688,-6.39749c0.581696,-3.18685 -0.096954,-4.637579 -0.412048,-5.135109c-1.163361,-0.406199 -4.047577,1.044529 -5.622986,2.067179c-2.569122,-0.737259 -7.99823,-0.665909 -10.034149,0.19026c-3.756744,-2.639858 -5.744171,-2.235558 -5.744171,-2.235558c0,0 -1.284592,2.259338 -0.339325,5.565098c-1.236099,1.54586 -2.157104,2.639851 -2.157104,5.53941c0,1.633381 0.195831,3.095531 0.637909,4.372171c-0.054184,-0.00013 0.592911,1.367441 0.610779,1.367022zm0,0"/>
      <path fill="#000000" fill-opacity="0.08" id="reflec" d="m205.095856,31.333324c0,16.568542 -13.450867,30.000004 -30.043365,30.000004c-6.153748,0 -11.875397,-1.847488 -16.63887,-5.01722l34.424576,-49.163373c7.433777,5.461241 12.25766,14.25839 12.25766,24.180589zm0,0"/>
     </g>
    </g>
   </g>
  </g>
 </g></svg>