<?xml version="1.0" encoding="utf-8"?>
<!-- Generator: Adobe Illustrator 16.0.0, SVG Export Plug-In . SVG Version: 6.00 Build 0)  -->
<!DOCTYPE svg PUBLIC "-//W3C//DTD SVG 1.1//EN" "http://www.w3.org/Graphics/SVG/1.1/DTD/svg11.dtd">
<svg version="1.1" id="Layer_1" xmlns:sketch="http://www.bohemiancoding.com/sketch/ns"
	 xmlns="http://www.w3.org/2000/svg" xmlns:xlink="http://www.w3.org/1999/xlink" x="0px" y="0px" width="693px" height="516px"
	 viewBox="0 0 693 516" enable-background="new 0 0 693 516" xml:space="preserve">
<g id="Mail" transform="translate(158.000000, 0.000000)">
	<path fill="#FFFFFF" d="M-88,31c0-16.568,13.432-30,30-30c16.569,0,30,13.432,30,30s-13.431,30-30,30C-74.568,61-88,47.568-88,31z"
		/>
	<path id="Shape_10_" fill="#333333" d="M-52.657,32.639L-40.297,21v20.576L-52.657,32.639z M-74.248,21l12.359,11.637
		l-12.359,8.939V21z M-57.272,36.984l2.95-2.777L-40.297,43h-33.951l14.025-8.793L-57.272,36.984z M-41.315,21l-15.957,12.455
		L-73.229,21H-41.315z"/>
	<path id="reflec_2_" fill-opacity="0.08" d="M-28,31c0,16.568-13.431,30-30,30c-6.145,0-11.858-1.848-16.615-5.018l34.375-49.163
		C-32.816,12.28-28,21.078-28,31z"/>
</g>
<g id="LinkedIN" transform="translate(316.000000, 0.500000)">
	<path fill="#007BB6" d="M-36,30.5c0-16.568,13.431-30,30-30c16.569,0,30,13.432,30,30s-13.431,30-30,30
		C-22.569,60.5-36,47.068-36,30.5z"/>
	<path id="Path_9_" fill="#FFFFFF" d="M-13.646,24.21h-6.789v20.427h6.789V24.21z"/>
	<path id="Path_10_" fill="#FFFFFF" d="M-13.2,17.891c-0.044-2.002-1.475-3.528-3.796-3.528c-2.323,0-3.841,1.526-3.841,3.528
		c0,1.961,1.473,3.531,3.752,3.531h0.044C-14.674,21.422-13.2,19.852-13.2,17.891z"/>
	<path id="Path_11_" fill="#FFFFFF" d="M10.837,32.925c0-6.274-3.35-9.195-7.816-9.195c-3.604,0-5.218,1.983-6.119,3.374V24.21
		h-6.791c0.09,1.917,0,20.427,0,20.427h6.791V33.229c0-0.611,0.043-1.22,0.223-1.657c0.49-1.22,1.608-2.482,3.483-2.482
		c2.457,0,3.44,1.873,3.44,4.618v10.928h6.788L10.837,32.925z"/>
	<path id="reflec_22_" fill-opacity="0.08" d="M24,30.5c0,16.568-13.431,30-30,30c-6.145,0-11.858-1.848-16.615-5.017L11.761,6.319
		C19.184,11.781,24,20.578,24,30.5z"/>
</g>
<g id="Twitter">
	<path fill="#4099FF" d="M1,31C1,14.432,14.431,1,31,1c16.568,0,30,13.432,30,30S47.568,61,31,61C14.431,61,1,47.568,1,31z"/>
	<path id="Path_17_" fill="#FFFFFF" d="M30.257,24.888l0.063,1.038l-1.048-0.127c-3.814-0.487-7.146-2.14-9.974-4.915l-1.383-1.377
		l-0.356,1.018c-0.754,2.267-0.272,4.66,1.299,6.271c0.838,0.89,0.649,1.017-0.796,0.487c-0.503-0.17-0.943-0.297-0.985-0.233
		c-0.146,0.148,0.356,2.076,0.754,2.839c0.545,1.06,1.655,2.098,2.871,2.712l1.027,0.487l-1.216,0.021
		c-1.173,0-1.215,0.021-1.09,0.466c0.419,1.377,2.075,2.839,3.919,3.475l1.299,0.444l-1.131,0.678
		c-1.676,0.975-3.646,1.525-5.616,1.568c-0.943,0.021-1.718,0.105-1.718,0.169c0,0.212,2.556,1.398,4.044,1.864
		c4.463,1.377,9.765,0.784,13.746-1.567c2.829-1.674,5.657-5,6.978-8.22c0.712-1.716,1.424-4.852,1.424-6.355
		c0-0.975,0.063-1.102,1.237-2.267c0.691-0.679,1.341-1.42,1.466-1.632c0.21-0.402,0.189-0.402-0.88-0.042
		c-1.781,0.636-2.033,0.551-1.153-0.402c0.65-0.679,1.425-1.907,1.425-2.268c0-0.063-0.314,0.043-0.671,0.233
		c-0.377,0.212-1.215,0.529-1.843,0.721l-1.132,0.359l-1.027-0.699c-0.565-0.381-1.362-0.805-1.781-0.932
		c-1.069-0.297-2.703-0.254-3.667,0.085C31.724,19.74,30.069,22.197,30.257,24.888z"/>
	<path id="reflec_27_" fill-opacity="0.08" d="M61,31c0,16.568-13.432,30-30,30c-6.145,0-11.858-1.848-16.615-5.017L48.76,6.819
		C56.183,12.281,61,21.078,61,31z"/>
</g>
<g id="Facebook" transform="translate(79.000000, 0.000000)">
	<path fill="#3B5998" d="M61,31C61,14.432,74.431,1,91,1s30,13.432,30,30s-13.431,30-30,30S61,47.568,61,31z"/>
	<path id="Path_18_" fill="#FFFFFF" d="M93.509,47.32V30.998h4.498l0.597-5.624h-5.095l0.007-2.816c0-1.467,0.139-2.251,2.244-2.251
		h2.812v-5.625h-4.499c-5.405,0-7.308,2.729-7.308,7.317v3.377h-3.368V31h3.368v16.32H93.509z"/>
	<path id="reflec_28_" fill-opacity="0.08" d="M121,31c0,16.568-13.431,30-30,30c-6.144,0-11.858-1.848-16.615-5.017L108.761,6.82
		C116.184,12.282,121,21.078,121,31z"/>
</g>
<g id="Github" transform="translate(237.000000, 0.000000)">
	<path fill="#333333" d="M-27,31C-27,14.432-13.568,1,3,1c16.569,0,30,13.432,30,30S19.569,61,3,61C-13.568,61-27,47.568-27,31z"/>
	<path id="Path_20_" fill="#FFFFFF" d="M-8.847,32.936c1.41,2.516,4.128,4.08,8.713,4.513c-0.655,0.488-1.44,1.415-1.549,2.486
		c-0.823,0.523-2.478,0.695-3.764,0.297c-1.803-0.56-2.493-4.067-5.192-3.567c-0.584,0.108-0.468,0.487,0.037,0.809
		c0.823,0.523,1.598,1.178,2.195,2.571c0.458,1.07,1.423,2.982,4.473,2.982c1.21,0,2.058-0.143,2.058-0.143s0.023,2.73,0.023,3.793
		c0,1.224-1.681,1.569-1.681,2.158c0,0.232,0.557,0.255,1.004,0.255c0.884,0,2.723-0.725,2.723-1.998
		c0-1.011,0.017-4.411,0.017-5.006c0-1.3,0.709-1.712,0.709-1.712s0.088,6.941-0.169,7.872c-0.302,1.094-0.848,0.938-0.848,1.427
		c0,0.726,2.214,0.178,2.948-1.415c0.568-1.241,0.32-8.051,0.32-8.051l0.605-0.012c0,0,0.034,3.117,0.014,4.542
		c-0.021,1.476-0.123,3.342,0.768,4.222c0.586,0.579,2.485,1.594,2.485,0.666c0-0.539-1.041-0.982-1.041-2.441v-6.715
		c0.831,0,0.706,2.208,0.706,2.208l0.061,4.103c0,0-0.183,1.494,1.645,2.12c0.645,0.222,2.025,0.281,2.09-0.09
		c0.065-0.373-1.662-0.928-1.678-2.086c-0.009-0.706,0.032-1.117,0.032-4.186s-0.419-4.202-1.88-5.105
		c4.509-0.456,7.299-1.552,8.659-4.487c0.106,0.003,0.554-1.371,0.496-1.371c0.305-1.108,0.47-2.419,0.503-3.972
		c-0.008-4.209-2.059-5.698-2.453-6.397c0.581-3.187-0.097-4.638-0.412-5.135c-1.162-0.406-4.042,1.044-5.614,2.067
		c-2.566-0.737-7.987-0.666-10.02,0.189c-3.751-2.64-5.736-2.235-5.736-2.235s-1.282,2.26-0.338,5.565
		c-1.234,1.546-2.154,2.64-2.154,5.539c0,1.634,0.195,3.096,0.637,4.372C-9.511,31.568-8.864,32.937-8.847,32.936z"/>
	<path id="reflec_30_" fill-opacity="0.08" d="M33,31c0,16.568-13.431,30-30,30c-6.145,0-11.858-1.848-16.615-5.017L20.76,6.819
		C28.183,12.281,33,21.078,33,31z"/>
</g>
</svg>
